o 
v 0 0.40000000298023225 0
v 0 0.40000000298023225 0
v 0 0.40000000298023225 0
v 0 0.40000000298023225 0
v 0 0.40000000298023225 0
v 0 0.40000000298023225 0
v 0 0.40000000298023225 0
v 0 0.40000000298023225 0
v 0 0.40000000298023225 0
v 0 0.40000000298023225 0
v 0 0.40000000298023225 0
v 0 0.40000000298023225 0
v 0 0.40000000298023225 0
v 0 0.40000000298023225 0
v 0 0.40000000298023225 0
v 0 0.40000000298023225 0
v 0 0.40000000298023225 0
v 0 0.40000000298023225 0
v 0 0.40000000298023225 0
v 0 0.40000000298023225 0
v 0 0.40000000298023225 0
v 0 0.40000000298023225 0
v 0 0.40000000298023225 0
v 0 0.40000000298023225 0
v 0 0.40000000298023225 0
v 0 -2.980232227667301e-9 0.20000000298023224
v 0.051763810217380524 -2.980232227667301e-9 0.19318516552448273
v 0.10000000149011612 -2.980232227667301e-9 0.17320507764816284
v 0.1414213627576828 -2.980232227667301e-9 0.1414213627576828
v 0.17320507764816284 -2.980232227667301e-9 0.10000000149011612
v 0.19318516552448273 -2.980232227667301e-9 0.051763810217380524
v 0.20000000298023224 -2.980232227667301e-9 1.2246467698671066e-17
v 0.19318516552448273 -2.980232227667301e-9 -0.051763810217380524
v 0.17320507764816284 -2.980232227667301e-9 -0.10000000149011612
v 0.1414213627576828 -2.980232227667301e-9 -0.1414213627576828
v 0.10000000149011612 -2.980232227667301e-9 -0.17320507764816284
v 0.051763810217380524 -2.980232227667301e-9 -0.19318516552448273
v 2.4492935397342132e-17 -2.980232227667301e-9 -0.20000000298023224
v -0.051763810217380524 -2.980232227667301e-9 -0.19318516552448273
v -0.10000000149011612 -2.980232227667301e-9 -0.17320507764816284
v -0.1414213627576828 -2.980232227667301e-9 -0.1414213627576828
v -0.17320507764816284 -2.980232227667301e-9 -0.10000000149011612
v -0.19318516552448273 -2.980232227667301e-9 -0.051763810217380524
v -0.20000000298023224 -2.980232227667301e-9 -3.6739405577555036e-17
v -0.19318516552448273 -2.980232227667301e-9 0.051763810217380524
v -0.17320507764816284 -2.980232227667301e-9 0.10000000149011612
v -0.1414213627576828 -2.980232227667301e-9 0.1414213627576828
v -0.10000000149011612 -2.980232227667301e-9 0.17320507764816284
v -0.051763810217380524 -2.980232227667301e-9 0.19318516552448273
v -4.8985870794684264e-17 -2.980232227667301e-9 0.20000000298023224
v 0 -2.980232227667301e-9 0
v 0 -2.980232227667301e-9 0
v 0 -2.980232227667301e-9 0
v 0 -2.980232227667301e-9 0
v 0 -2.980232227667301e-9 0
v 0 -2.980232227667301e-9 0
v 0 -2.980232227667301e-9 0
v 0 -2.980232227667301e-9 0
v 0 -2.980232227667301e-9 0
v 0 -2.980232227667301e-9 0
v 0 -2.980232227667301e-9 0
v 0 -2.980232227667301e-9 0
v 0 -2.980232227667301e-9 0
v 0 -2.980232227667301e-9 0
v 0 -2.980232227667301e-9 0
v 0 -2.980232227667301e-9 0
v 0 -2.980232227667301e-9 0
v 0 -2.980232227667301e-9 0
v 0 -2.980232227667301e-9 0
v 0 -2.980232227667301e-9 0
v 0 -2.980232227667301e-9 0
v 0 -2.980232227667301e-9 0
v 0 -2.980232227667301e-9 0
v 0 -2.980232227667301e-9 0
v 0 -2.980232227667301e-9 0.20000000298023224
v 0.051763810217380524 -2.980232227667301e-9 0.19318516552448273
v 0.10000000149011612 -2.980232227667301e-9 0.17320507764816284
v 0.1414213627576828 -2.980232227667301e-9 0.1414213627576828
v 0.17320507764816284 -2.980232227667301e-9 0.10000000149011612
v 0.19318516552448273 -2.980232227667301e-9 0.051763810217380524
v 0.20000000298023224 -2.980232227667301e-9 1.2246467698671066e-17
v 0.19318516552448273 -2.980232227667301e-9 -0.051763810217380524
v 0.17320507764816284 -2.980232227667301e-9 -0.10000000149011612
v 0.1414213627576828 -2.980232227667301e-9 -0.1414213627576828
v 0.10000000149011612 -2.980232227667301e-9 -0.17320507764816284
v 0.051763810217380524 -2.980232227667301e-9 -0.19318516552448273
v 2.4492935397342132e-17 -2.980232227667301e-9 -0.20000000298023224
v -0.051763810217380524 -2.980232227667301e-9 -0.19318516552448273
v -0.10000000149011612 -2.980232227667301e-9 -0.17320507764816284
v -0.1414213627576828 -2.980232227667301e-9 -0.1414213627576828
v -0.17320507764816284 -2.980232227667301e-9 -0.10000000149011612
v -0.19318516552448273 -2.980232227667301e-9 -0.051763810217380524
v -0.20000000298023224 -2.980232227667301e-9 -3.6739405577555036e-17
v -0.19318516552448273 -2.980232227667301e-9 0.051763810217380524
v -0.17320507764816284 -2.980232227667301e-9 0.10000000149011612
v -0.1414213627576828 -2.980232227667301e-9 0.1414213627576828
v -0.10000000149011612 -2.980232227667301e-9 0.17320507764816284
v -0.051763810217380524 -2.980232227667301e-9 0.19318516552448273
v -4.8985870794684264e-17 -2.980232227667301e-9 0.20000000298023224
vt 0 1
vt 0.0416666679084301 1
vt 0.0833333358168602 1
vt 0.125 1
vt 0.1666666716337204 1
vt 0.2083333283662796 1
vt 0.25 1
vt 0.2916666567325592 1
vt 0.3333333432674408 1
vt 0.375 1
vt 0.4166666567325592 1
vt 0.4583333432674408 1
vt 0.5 1
vt 0.5416666865348816 1
vt 0.5833333134651184 1
vt 0.625 1
vt 0.6666666865348816 1
vt 0.7083333134651184 1
vt 0.75 1
vt 0.7916666865348816 1
vt 0.8333333134651184 1
vt 0.875 1
vt 0.9166666865348816 1
vt 0.9583333134651184 1
vt 1 1
vt 0 0
vt 0.0416666679084301 0
vt 0.0833333358168602 0
vt 0.125 0
vt 0.1666666716337204 0
vt 0.2083333283662796 0
vt 0.25 0
vt 0.2916666567325592 0
vt 0.3333333432674408 0
vt 0.375 0
vt 0.4166666567325592 0
vt 0.4583333432674408 0
vt 0.5 0
vt 0.5416666865348816 0
vt 0.5833333134651184 0
vt 0.625 0
vt 0.6666666865348816 0
vt 0.7083333134651184 0
vt 0.75 0
vt 0.7916666865348816 0
vt 0.8333333134651184 0
vt 0.875 0
vt 0.9166666865348816 0
vt 0.9583333134651184 0
vt 1 0
vt 0.5 0.5
vt 0.5 0.5
vt 0.5 0.5
vt 0.5 0.5
vt 0.5 0.5
vt 0.5 0.5
vt 0.5 0.5
vt 0.5 0.5
vt 0.5 0.5
vt 0.5 0.5
vt 0.5 0.5
vt 0.5 0.5
vt 0.5 0.5
vt 0.5 0.5
vt 0.5 0.5
vt 0.5 0.5
vt 0.5 0.5
vt 0.5 0.5
vt 0.5 0.5
vt 0.5 0.5
vt 0.5 0.5
vt 0.5 0.5
vt 0.5 0.5
vt 0.5 0.5
vt 1 0.5
vt 0.9829629063606262 0.370590478181839
vt 0.9330127239227295 0.25
vt 0.8535534143447876 0.1464466154575348
vt 0.75 0.0669872984290123
vt 0.6294095516204834 0.017037086188793182
vt 0.5 0
vt 0.370590478181839 0.017037086188793182
vt 0.25 0.0669872984290123
vt 0.1464466154575348 0.1464466154575348
vt 0.0669872984290123 0.25
vt 0.017037086188793182 0.370590478181839
vt 0 0.5
vt 0.017037086188793182 0.6294095516204834
vt 0.0669872984290123 0.75
vt 0.1464466154575348 0.8535534143447876
vt 0.25 0.9330127239227295
vt 0.370590478181839 0.9829629063606262
vt 0.5 1
vt 0.6294095516204834 0.9829629063606262
vt 0.75 0.9330127239227295
vt 0.8535534143447876 0.8535534143447876
vt 0.9330127239227295 0.75
vt 0.9829629063606262 0.6294095516204834
vt 1 0.5
vn 0 0.4472135954999579 0.8944271909999159
vn 0.23149478756868325 0.4472135963531545 0.8639503241306227
vn 0.44721358470409384 0.44721358470409384 0.7745966817074731
vn 0.6324555326980081 0.4472135936209425 0.6324555326980081
vn 0.7745966817074731 0.44721358470409384 0.44721358470409384
vn 0.8639503241306227 0.4472135963531545 0.23149478756868325
vn 0.8944271909999159 0.4472135954999579 5.476787054965444e-17
vn 0.8639503241306227 0.4472135963531545 -0.23149478756868325
vn 0.7745966817074731 0.44721358470409384 -0.44721358470409384
vn 0.6324555326980081 0.4472135936209425 -0.6324555326980081
vn 0.44721358470409384 0.44721358470409384 -0.7745966817074731
vn 0.23149478756868325 0.4472135963531545 -0.8639503241306227
vn 1.0953574109930888e-16 0.4472135954999579 -0.8944271909999159
vn -0.23149478756868325 0.4472135963531545 -0.8639503241306227
vn -0.44721358470409384 0.44721358470409384 -0.7745966817074731
vn -0.6324555326980081 0.4472135936209425 -0.6324555326980081
vn -0.7745966817074731 0.44721358470409384 -0.44721358470409384
vn -0.8639503241306227 0.4472135963531545 -0.23149478756868325
vn -0.8944271909999159 0.4472135954999579 -1.6430361495768581e-16
vn -0.8639503241306227 0.4472135963531545 0.23149478756868325
vn -0.7745966817074731 0.44721358470409384 0.44721358470409384
vn -0.6324555326980081 0.4472135936209425 0.6324555326980081
vn -0.44721358470409384 0.44721358470409384 0.7745966817074731
vn -0.23149478756868325 0.4472135963531545 0.8639503241306227
vn -2.1907148219861777e-16 0.4472135954999579 0.8944271909999159
vn 0 0.4472135954999579 0.8944271909999159
vn 0.23149478756868325 0.4472135963531545 0.8639503241306227
vn 0.44721358470409384 0.44721358470409384 0.7745966817074731
vn 0.6324555326980081 0.4472135936209425 0.6324555326980081
vn 0.7745966817074731 0.44721358470409384 0.44721358470409384
vn 0.8639503241306227 0.4472135963531545 0.23149478756868325
vn 0.8944271909999159 0.4472135954999579 5.476787054965444e-17
vn 0.8639503241306227 0.4472135963531545 -0.23149478756868325
vn 0.7745966817074731 0.44721358470409384 -0.44721358470409384
vn 0.6324555326980081 0.4472135936209425 -0.6324555326980081
vn 0.44721358470409384 0.44721358470409384 -0.7745966817074731
vn 0.23149478756868325 0.4472135963531545 -0.8639503241306227
vn 1.0953574109930888e-16 0.4472135954999579 -0.8944271909999159
vn -0.23149478756868325 0.4472135963531545 -0.8639503241306227
vn -0.44721358470409384 0.44721358470409384 -0.7745966817074731
vn -0.6324555326980081 0.4472135936209425 -0.6324555326980081
vn -0.7745966817074731 0.44721358470409384 -0.44721358470409384
vn -0.8639503241306227 0.4472135963531545 -0.23149478756868325
vn -0.8944271909999159 0.4472135954999579 -1.6430361495768581e-16
vn -0.8639503241306227 0.4472135963531545 0.23149478756868325
vn -0.7745966817074731 0.44721358470409384 0.44721358470409384
vn -0.6324555326980081 0.4472135936209425 0.6324555326980081
vn -0.44721358470409384 0.44721358470409384 0.7745966817074731
vn -0.23149478756868325 0.4472135963531545 0.8639503241306227
vn -2.1907148219861777e-16 0.4472135954999579 0.8944271909999159
vn 0 -1 0
vn 0 -1 0
vn 0 -1 0
vn 0 -1 0
vn 0 -1 0
vn 0 -1 0
vn 0 -1 0
vn 0 -1 0
vn 0 -1 0
vn 0 -1 0
vn 0 -1 0
vn 0 -1 0
vn 0 -1 0
vn 0 -1 0
vn 0 -1 0
vn 0 -1 0
vn 0 -1 0
vn 0 -1 0
vn 0 -1 0
vn 0 -1 0
vn 0 -1 0
vn 0 -1 0
vn 0 -1 0
vn 0 -1 0
vn 0 -1 0
vn 0 -1 0
vn 0 -1 0
vn 0 -1 0
vn 0 -1 0
vn 0 -1 0
vn 0 -1 0
vn 0 -1 0
vn 0 -1 0
vn 0 -1 0
vn 0 -1 0
vn 0 -1 0
vn 0 -1 0
vn 0 -1 0
vn 0 -1 0
vn 0 -1 0
vn 0 -1 0
vn 0 -1 0
vn 0 -1 0
vn 0 -1 0
vn 0 -1 0
vn 0 -1 0
vn 0 -1 0
vn 0 -1 0
vn 0 -1 0
f 1/1/1 26/26/26 2/2/2
f 26/26/26 27/27/27 2/2/2
f 2/2/2 27/27/27 3/3/3
f 27/27/27 28/28/28 3/3/3
f 3/3/3 28/28/28 4/4/4
f 28/28/28 29/29/29 4/4/4
f 4/4/4 29/29/29 5/5/5
f 29/29/29 30/30/30 5/5/5
f 5/5/5 30/30/30 6/6/6
f 30/30/30 31/31/31 6/6/6
f 6/6/6 31/31/31 7/7/7
f 31/31/31 32/32/32 7/7/7
f 7/7/7 32/32/32 8/8/8
f 32/32/32 33/33/33 8/8/8
f 8/8/8 33/33/33 9/9/9
f 33/33/33 34/34/34 9/9/9
f 9/9/9 34/34/34 10/10/10
f 34/34/34 35/35/35 10/10/10
f 10/10/10 35/35/35 11/11/11
f 35/35/35 36/36/36 11/11/11
f 11/11/11 36/36/36 12/12/12
f 36/36/36 37/37/37 12/12/12
f 12/12/12 37/37/37 13/13/13
f 37/37/37 38/38/38 13/13/13
f 13/13/13 38/38/38 14/14/14
f 38/38/38 39/39/39 14/14/14
f 14/14/14 39/39/39 15/15/15
f 39/39/39 40/40/40 15/15/15
f 15/15/15 40/40/40 16/16/16
f 40/40/40 41/41/41 16/16/16
f 16/16/16 41/41/41 17/17/17
f 41/41/41 42/42/42 17/17/17
f 17/17/17 42/42/42 18/18/18
f 42/42/42 43/43/43 18/18/18
f 18/18/18 43/43/43 19/19/19
f 43/43/43 44/44/44 19/19/19
f 19/19/19 44/44/44 20/20/20
f 44/44/44 45/45/45 20/20/20
f 20/20/20 45/45/45 21/21/21
f 45/45/45 46/46/46 21/21/21
f 21/21/21 46/46/46 22/22/22
f 46/46/46 47/47/47 22/22/22
f 22/22/22 47/47/47 23/23/23
f 47/47/47 48/48/48 23/23/23
f 23/23/23 48/48/48 24/24/24
f 48/48/48 49/49/49 24/24/24
f 24/24/24 49/49/49 25/25/25
f 49/49/49 50/50/50 25/25/25
f 76/76/76 75/75/75 51/51/51
f 77/77/77 76/76/76 52/52/52
f 78/78/78 77/77/77 53/53/53
f 79/79/79 78/78/78 54/54/54
f 80/80/80 79/79/79 55/55/55
f 81/81/81 80/80/80 56/56/56
f 82/82/82 81/81/81 57/57/57
f 83/83/83 82/82/82 58/58/58
f 84/84/84 83/83/83 59/59/59
f 85/85/85 84/84/84 60/60/60
f 86/86/86 85/85/85 61/61/61
f 87/87/87 86/86/86 62/62/62
f 88/88/88 87/87/87 63/63/63
f 89/89/89 88/88/88 64/64/64
f 90/90/90 89/89/89 65/65/65
f 91/91/91 90/90/90 66/66/66
f 92/92/92 91/91/91 67/67/67
f 93/93/93 92/92/92 68/68/68
f 94/94/94 93/93/93 69/69/69
f 95/95/95 94/94/94 70/70/70
f 96/96/96 95/95/95 71/71/71
f 97/97/97 96/96/96 72/72/72
f 98/98/98 97/97/97 73/73/73
f 99/99/99 98/98/98 74/74/74
